<!DOCTYPE svg PUBLIC "-//W3C//DTD SVG 20010904//EN" "http://www.w3.org/TR/2001/REC-SVG-20010904/DTD/svg10.dtd">
<svg version="1.0" xmlns="http://www.w3.org/2000/svg" width="150" height="150" viewBox="0 0 10760 10780" preserveAspectRatio="xMidYMid meet">
<g id="layer101" fill="#95e1d3" stroke="none">
 <path d="M0 5390 l0 -5390 5380 0 5380 0 0 5390 0 5390 -5380 0 -5380 0 0 -5390z"/>
 </g>
<g id="layer102" fill="#f8f8f8" stroke="none">
 <path d="M240 5385 l0 -5145 5150 0 5150 0 0 5145 0 5145 -5150 0 -5150 0 0 -5145z m3718 2200 c24 -11 141 -120 342 -320 l305 -305 1170 -2 1170 -3 42 -22 c88 -47 123 -121 123 -257 0 -73 -1 -76 -23 -76 -34 0 -116 -29 -162 -58 -22 -14 -150 -134 -285 -268 l-246 -244 -985 0 c-1064 0 -1039 1 -1148 -53 -102 -50 -194 -174 -220 -295 -7 -36 -11 -293 -11 -818 l0 -765 -359 3 -359 3 -44 30 c-23 17 -54 51 -68 75 l-25 45 -3 1240 c-2 885 1 1255 9 1294 9 44 20 63 58 101 60 60 102 70 291 70 l140 0 0 248 0 249 60 57 c89 85 149 104 228 71z m3217 -1220 c20 -8 60 -37 90 -66 l55 -52 0 -218 0 -217 109 -4 c103 -3 112 -5 153 -33 28 -20 53 -49 71 -85 l27 -54 -2 -1121 -3 -1120 -25 -45 c-16 -28 -43 -55 -74 -75 l-49 -30 -1545 -3 c-1056 -1 -1557 1 -1583 8 -50 14 -107 64 -130 115 -18 38 -19 98 -19 1161 0 1216 -3 1156 54 1217 14 15 45 37 68 47 42 19 77 20 1067 20 l1025 0 273 272 c149 149 282 278 295 285 31 17 101 16 143 -2z"/>
 </g>

</svg>