<svg xmlns="http://www.w3.org/2000/svg" width="31.951" height="22.522" viewBox="0 0 31.951 22.522">
  <path id="USERS" d="M555.95,1505.5a.01.01,0,0,0,0,0,.993.993,0,0,1-.995.992h-7.412a1.236,1.236,0,0,0,.971-1.205s0,0,0,0h0s0-4.5-3.3-6.142a5.949,5.949,0,0,0-2.205-.732l.019-1.95a3.663,3.663,0,0,1-1.01-2.431c-.482.139-.642-.564-.67-1.012-.026-.431-.279-1.783.309-1.66a11.908,11.908,0,0,1-.164-2.147,3.893,3.893,0,0,1,3.861-3.208c2.649.114,3.7,1.694,3.845,3.207a12,12,0,0,1-.172,2.146c.589-.12.333,1.228.3,1.661-.026.448-.189,1.149-.67,1.01a3.643,3.643,0,0,1-1.011,2.426l.018,1.948s.487.278,2.545,1.127,1.412.215,3.089,1.045c2.649,1.314,2.649,4.927,2.649,4.927Zm-14.927-6.663c2.262.935,1.552.235,3.4,1.149,2.912,1.444,2.912,5.416,2.912,5.416h0a.008.008,0,0,1,0,0,1.092,1.092,0,0,1-1.094,1.09H525.094a1.092,1.092,0,0,1-1.094-1.09.014.014,0,0,1,0,0h0s0-3.972,2.912-5.417c1.842-.913,1.133-.172,3.395-1.106a25.938,25.938,0,0,0,2.8-1.26l.021-2.152a4.025,4.025,0,0,1-1.11-2.67c-.53.153-.705-.621-.736-1.113-.028-.474-.307-1.96.34-1.825a13.081,13.081,0,0,1-.181-2.359,4.281,4.281,0,0,1,4.244-3.528c2.911.126,4.065,1.863,4.226,3.525a13.185,13.185,0,0,1-.189,2.359c.647-.132.366,1.349.334,1.825-.029.492-.208,1.262-.736,1.11a4,4,0,0,1-1.111,2.666l.02,2.142S538.761,1497.906,541.023,1498.84Z" transform="translate(-523.999 -1483.975)" fill="#fff"/>
</svg>
