<svg xmlns="http://www.w3.org/2000/svg" width="28" height="32" viewBox="0 0 28 32">
  <path id="EQUALIZER" d="M1002.5,4200.5h-3a1.5,1.5,0,0,1-1.5-1.5v-6a1.5,1.5,0,0,1,1.5-1.5h3a1.5,1.5,0,0,1,1.5,1.5v6A1.5,1.5,0,0,1,1002.5,4200.5Zm-3-15a1.5,1.5,0,0,1,3,0v4.5h-3Zm-8,23h-3a1.5,1.5,0,0,1-1.5-1.5v-6a1.5,1.5,0,0,1,1.5-1.5h3a1.5,1.5,0,0,1,1.5,1.5v6A1.5,1.5,0,0,1,991.5,4208.5Zm-3-23a1.5,1.5,0,0,1,3,0V4198h-3Zm-8,19h-3a1.5,1.5,0,0,1-1.5-1.5v-6a1.5,1.5,0,0,1,1.5-1.5h3a1.5,1.5,0,0,1,1.5,1.5v6A1.5,1.5,0,0,1,980.5,4204.5Zm-3-19a1.5,1.5,0,0,1,3,0v8.5h-3Zm3,29a1.5,1.5,0,1,1-3,0V4206h3Zm11,0a1.5,1.5,0,1,1-3,0V4210h3Zm11,0a1.5,1.5,0,1,1-3,0V4202h3Z" transform="translate(-976 -4183.998)" fill="#95e1d3"/>
</svg>
